HIERARCHY
ROOT root
{
	OFFSET 0.000000 0.000000 0.000000
	CHANNELS 6 Xposition Yposition Zposition Zrotation Yrotation Xrotation
	JOINT lhip
	{
		OFFSET 0.058581 -0.082280 -0.017664
		CHANNELS 3 Zrotation Yrotation Xrotation
		JOINT lknee
		{
			OFFSET 0.043451 -0.386469 0.008037
			CHANNELS 3 Zrotation Yrotation Xrotation
			JOINT lankle
			{
				OFFSET -0.014790 -0.426874 -0.037428
				CHANNELS 3 Zrotation Yrotation Xrotation
				JOINT ltoe
				{
					OFFSET 0.041054 -0.060286 0.122042
					CHANNELS 3 Zrotation Yrotation Xrotation
					End Site
					{
						OFFSET 0.000000 0.000000 0.000000
					}
				}
			}
		}
	}
	JOINT rhip
	{
		OFFSET -0.060310 -0.090513 -0.013543
		CHANNELS 3 Zrotation Yrotation Xrotation
		JOINT rknee
		{
			OFFSET -0.043257 -0.383688 -0.004843
			CHANNELS 3 Zrotation Yrotation Xrotation
			JOINT rankle
			{
				OFFSET 0.019056 -0.420046 -0.034562
				CHANNELS 3 Zrotation Yrotation Xrotation
				JOINT rtoe
				{
					OFFSET -0.034840 -0.062106 0.130323
					CHANNELS 3 Zrotation Yrotation Xrotation
					End Site
					{
						OFFSET 0.000000 0.000000 0.000000
					}
				}
			}
		}
	}
	JOINT lowerback
	{
		OFFSET 0.004439 0.124404 -0.038385
		CHANNELS 3 Zrotation Yrotation Xrotation
		JOINT upperback
		{
			OFFSET 0.004488 0.137956 0.026820
			CHANNELS 3 Zrotation Yrotation Xrotation
			JOINT chest
			{
				OFFSET -0.002265 0.056032 0.002855
				CHANNELS 3 Zrotation Yrotation Xrotation
				JOINT lowerneck
				{
					OFFSET -0.013390 0.211636 -0.033468
					CHANNELS 3 Zrotation Yrotation Xrotation
					JOINT upperneck
					{
						OFFSET 0.010113 0.088937 0.050410
						CHANNELS 3 Zrotation Yrotation Xrotation
						End Site
						{
							OFFSET 0.000000 0.000000 0.000000
						}
					}
				}
				JOINT lclavicle
				{
					OFFSET 0.071702 0.114000 -0.018898
					CHANNELS 3 Zrotation Yrotation Xrotation
					JOINT lshoulder
					{
						OFFSET 0.122921 0.045205 -0.019046
						CHANNELS 3 Zrotation Yrotation Xrotation
						JOINT lelbow
						{
							OFFSET 0.255332 -0.015649 -0.022946
							CHANNELS 3 Zrotation Yrotation Xrotation
							JOINT lwrist
							{
								OFFSET 0.265709 0.012698 -0.007375
								CHANNELS 3 Zrotation Yrotation Xrotation
								End Site
								{
									OFFSET 0.000000 0.000000 0.000000
								}
							}
						}
					}
				}
				JOINT rclavicle
				{
					OFFSET -0.082954 0.112472 -0.023707
					CHANNELS 3 Zrotation Yrotation Xrotation
					JOINT rshoulder
					{
						OFFSET -0.113228 0.046853 -0.008472
						CHANNELS 3 Zrotation Yrotation Xrotation
						JOINT relbow
						{
							OFFSET -0.260127 -0.014369 -0.031269
							CHANNELS 3 Zrotation Yrotation Xrotation
							JOINT rwrist
							{
								OFFSET -0.269108 0.006794 -0.006027
								CHANNELS 3 Zrotation Yrotation Xrotation
								End Site
								{
									OFFSET 0.000000 0.000000 0.000000
								}
							}
						}
					}
				}
			}
		}
	}
}
MOTION
Frames: 12
Frame Time: 0.033333
0.069316 -1.789060 0.959184 -162.909047 1.124222 96.926323 13.923411 0.027988 -16.653322 -8.544759 -4.532922 17.706683 2.574749 11.041844 -15.375054 0.000000 -0.000000 0.000000 -8.834617 -11.876530 -9.376035 4.981618 -8.144941 15.450750 0.178648 -15.791143 -12.438764 0.000000 -0.000000 0.000000 0.823859 0.929977 16.288042 1.327191 -4.638874 -0.484009 3.398473 -3.335384 -1.056189 -5.542379 3.767169 -11.468668 1.264204 17.323273 -18.582626 -23.198848 -13.607093 8.851595 -30.244979 -1.311573 28.572524 -138.159529 -61.400385 135.174278 41.428442 12.852233 -30.900420 15.499657 11.610760 8.121670 37.125551 -7.587803 30.664351 151.176388 66.264630 146.967363 -34.690017 -1.240821 -35.621447 
0.064236 -1.775058 0.962113 -161.141604 1.049783 95.407359 13.654583 0.472801 -14.124398 -8.727678 -5.803847 16.972964 3.180553 10.261175 -15.701372 0.000000 -0.000000 0.000000 -8.987370 -13.160731 -4.754992 4.433315 -8.841940 12.732887 1.531922 -15.573598 -12.105164 0.000000 -0.000000 0.000000 -0.437014 3.044944 16.788074 1.510804 -3.397249 -0.818013 3.583690 -1.878720 -0.296072 -3.799029 2.944905 -11.843414 2.881790 11.960335 -17.389851 -18.426060 -10.522271 4.840266 -29.784802 -4.588851 24.475056 -145.369657 -56.381621 150.984903 42.374962 13.801825 -34.151967 13.352471 10.713148 5.407933 42.029939 -4.183539 30.048143 162.104248 60.508149 164.737420 -36.820922 0.395120 -33.084863 
0.060311 -1.763621 0.964090 -160.963968 1.121955 96.084189 13.695166 -0.038203 -13.543927 -8.177046 -5.038665 16.097845 3.092077 9.972556 -16.004752 0.000000 -0.000000 0.000000 -8.678206 -13.535944 -3.491263 3.923304 -10.243956 10.625281 2.258391 -14.161439 -11.404540 0.000000 -0.000000 0.000000 -2.234562 5.577905 13.682792 1.540499 -1.706320 -0.598706 3.621815 0.592524 0.142102 -2.078221 2.522321 -10.381039 6.016507 5.398366 -15.316718 -14.379283 -10.308560 0.375562 -28.565645 -12.170884 18.849649 -157.045633 -59.130446 163.216193 38.105190 8.237320 -35.137969 12.904313 12.898141 3.312163 43.430918 4.916204 26.687325 174.416572 59.130295 -179.149911 -34.033758 4.652008 -30.171780 
0.052476 -1.755367 0.962396 -163.089459 2.028856 94.128250 13.860566 3.552760 -10.585590 -7.256236 -4.079296 16.813470 1.320639 6.805137 -19.748674 0.000000 -0.000000 0.000000 -9.538505 -14.210566 -2.303455 3.106790 -13.263954 13.018974 5.131521 -7.155411 -13.745954 0.000000 -0.000000 0.000000 -0.295226 8.055404 15.205863 -0.338348 0.619547 -0.953813 2.129033 4.016011 -0.761868 -0.036217 2.725446 -11.893555 7.338105 -4.157699 -7.212485 -10.935677 -17.510048 -6.969994 -27.629899 -21.383737 12.251664 174.929564 -76.448153 -166.704547 36.617837 -5.508208 -27.452566 12.231833 22.895903 -0.695529 38.003410 21.091849 16.713992 -162.859509 69.122314 -153.544436 -36.081461 11.036982 -20.621706 
0.051920 -1.752757 0.962101 -162.633646 1.935936 93.993587 13.865207 3.593426 -10.718680 -7.028186 -2.920475 17.629773 0.938597 5.479309 -20.078614 0.000000 -0.000000 0.000000 -10.047622 -14.322983 -3.031600 2.976324 -14.509679 15.356957 4.868706 -5.740269 -14.714004 0.000000 -0.000000 0.000000 -0.172280 8.632616 16.099358 -1.200864 0.899564 -1.925188 1.707605 4.849271 -1.394586 1.007084 2.136588 -12.430454 7.282940 -6.848280 -3.626043 -10.381146 -22.837218 -10.061535 -26.058756 -29.220126 6.282258 69.003355 -78.014825 -64.347831 30.179981 -10.131517 -26.741089 10.964738 29.553312 -2.937443 34.247342 31.626199 10.179994 -107.890597 75.639749 -98.517946 -30.526154 14.018173 -15.715744 
0.052434 -1.747917 0.960200 -163.649935 1.949834 94.526177 14.144399 4.683615 -10.260987 -7.146981 -2.946723 17.138596 0.802205 5.449659 -20.324562 0.000000 -0.000000 0.000000 -10.323736 -13.097179 -5.852628 3.163334 -14.298542 19.577031 4.147701 -5.640144 -16.291112 0.000000 -0.000000 0.000000 -0.495878 8.281752 16.753807 -2.953565 1.360749 -2.643656 1.018191 5.542376 -3.080938 2.721481 2.087209 -13.526404 8.313711 -8.313979 0.264748 -8.762450 -31.732974 -13.447966 -19.158075 -36.685954 -2.753661 41.523359 -52.885976 -44.577915 22.237660 -8.105013 -26.176155 9.480314 40.555878 -4.753477 25.728723 45.751816 -1.099950 -45.353475 58.296248 -42.472515 -20.346213 9.322157 -15.585830 
0.056540 -1.740570 0.958880 -162.712349 2.116935 95.075142 14.766399 6.109117 -11.230952 -7.596623 -3.978749 17.984328 -0.217694 4.940579 -20.709440 0.000000 -0.000000 0.000000 -9.875917 -13.390602 -8.073704 3.361456 -14.351745 23.501058 3.478006 -6.281262 -18.708520 0.000000 -0.000000 0.000000 -1.662460 7.800819 19.011400 -3.751200 0.291002 -4.443016 1.289525 5.029296 -4.004969 4.717408 3.185591 -15.661882 9.633292 -9.362653 0.780821 -2.278525 -37.312188 -18.053503 -10.931371 -39.581899 -11.510713 33.198345 -34.755586 -41.199955 20.593135 -4.907106 -20.867963 1.216241 48.071315 -12.830612 16.141938 57.193060 -14.435948 -27.932605 34.169841 -34.747296 -15.717243 4.604706 -16.174465 
0.060457 -1.726039 0.958058 -161.359578 2.749137 95.546360 16.320760 7.041301 -11.269504 -8.263204 -5.291578 17.822382 -1.310865 4.415118 -21.458114 0.000000 -0.000000 0.000000 -9.237898 -14.826854 -8.573453 4.047969 -14.492509 25.984535 3.914621 -6.116282 -19.810650 0.000000 -0.000000 0.000000 -2.330933 7.740146 20.694022 -3.913827 -0.033194 -6.164096 1.819245 4.816803 -3.975928 5.872889 1.333013 -16.493215 10.406662 -11.199555 -1.629437 4.005964 -37.176086 -22.582419 -6.601885 -40.287129 -14.831120 25.269796 -26.042641 -39.187822 18.576618 -5.545145 -23.552645 -8.718615 47.356861 -21.039524 7.518580 60.344645 -22.956743 -22.124971 22.843995 -30.773045 -12.946062 4.573040 -10.685864 
0.060953 -1.709650 0.957033 -159.257107 2.579862 97.715178 16.613817 6.323782 -12.757830 -8.131459 -5.460125 17.037003 -1.307143 4.470812 -21.547317 0.000000 -0.000000 0.000000 -9.988087 -16.096207 -9.041996 4.577427 -16.031261 27.506970 4.413237 -6.425862 -20.839439 0.000000 -0.000000 0.000000 -2.825597 7.900202 18.845754 -4.093398 -0.708278 -6.980002 1.162151 4.409449 -4.370469 6.575983 -1.361759 -15.362997 12.196947 -14.587373 -1.078269 3.312401 -36.551949 -21.898963 -4.249054 -39.811764 -14.932775 23.337420 -27.590655 -39.003877 15.671049 -7.525518 -24.201238 -8.613923 46.571973 -20.392693 1.983249 57.389131 -25.960557 -20.288893 25.061900 -29.333783 -11.093173 5.742842 -9.476167 
0.066678 -1.687115 0.953808 -155.011069 1.751405 101.073725 17.583989 6.926355 -18.617410 -10.036275 -3.072981 21.752550 -1.498694 1.530842 -21.127162 0.000000 -0.000000 0.000000 -11.012695 -18.702165 -9.346907 2.378077 -19.983877 31.236649 2.984080 -7.503393 -21.479949 0.000000 -0.000000 0.000000 -4.894211 8.291112 16.477167 -3.530115 -2.757639 -9.515743 1.207733 3.565386 -5.084745 5.351470 -8.033116 -9.424553 17.287634 -16.970822 3.023094 -2.243107 -35.810729 -16.096703 -5.243494 -40.354346 -13.165225 29.807826 -33.528391 -41.126993 12.844979 -6.583037 -26.729600 -2.487822 45.223421 -13.606039 3.348212 57.656697 -25.518589 -24.166563 29.794230 -30.153445 -14.093274 6.220860 -11.597718 
0.074907 -1.669209 0.947759 -151.544809 1.311494 102.641464 20.203324 7.261044 -23.589073 -12.098042 1.586504 27.622615 -3.206801 -1.109127 -19.752800 0.000000 -0.000000 0.000000 -11.601907 -18.184813 -7.896086 0.924652 -19.967842 35.058238 2.043076 -7.452475 -20.744446 0.000000 -0.000000 0.000000 -7.699305 9.248627 15.032109 -1.697243 -3.523209 -8.665651 2.001799 3.003978 -6.741920 5.426106 -15.104980 -8.995009 13.974538 -24.572626 7.344496 -4.950312 -34.357974 -12.588751 -14.610569 -42.053005 -9.859288 42.532897 -40.759106 -49.050146 16.751871 -4.046051 -27.730836 0.440891 43.998917 -10.534553 17.051084 55.097182 -15.670516 -37.004778 41.423929 -38.049451 -13.070670 6.907313 -14.156359 
0.078292 -1.653835 0.933000 -147.094145 0.108253 105.733175 21.994253 4.944834 -31.561948 -11.954688 7.154886 35.252594 -2.519252 -1.469990 -18.772606 0.000000 -0.000000 0.000000 -13.652238 -16.631083 -7.775539 -0.639223 -21.616779 40.864470 0.427043 -6.103612 -20.826464 0.000000 -0.000000 0.000000 -10.133542 9.772329 11.427311 -0.094306 -4.775578 -7.837125 1.666695 2.434889 -7.405118 5.299281 -19.983506 -6.742546 14.589221 -31.630056 8.919835 -9.550065 -31.276246 -6.788680 -29.060787 -43.655138 -3.379717 64.421716 -49.576120 -61.436500 18.381319 -3.673154 -27.019865 6.792102 40.235264 -4.858122 37.547113 51.841450 -2.274553 -61.370206 53.804570 -51.503760 -12.171058 8.716917 -13.133036 
